<?xml version="1.0" encoding="utf-8"?>
<svg width="225" height="103" viewBox="5.803 6.331 213.394 56.311" fill="none" xmlns="http://www.w3.org/2000/svg">
  <path fill-rule="evenodd" clip-rule="evenodd" d="M32.1857 18.2H47.8394V51.9369H32.1857V18.2Z" fill="white"/>
  <path d="M7.03125 7.05012H51.7978V51.937H44.2752V23.156H36.8429V51.937H7.03125V7.05012Z" fill="#004466"/>
  <path d="M209.976 37.7157C209.976 41.4237 209.108 43.7671 207.316 44.8054C206.17 45.4579 203.672 45.7842 199.76 45.7842H196.932V29.4893L199.703 29.4323C203.561 29.3779 206.115 29.8155 207.368 30.5794C209.108 31.6669 209.976 34.0647 209.976 37.7157ZM196.932 61.8174V51.9417H203.51C209.16 51.9417 213.183 50.2509 215.575 46.8174C217.153 44.5284 217.969 41.535 217.969 37.8814C217.969 33.1921 216.719 29.5954 214.271 27.0345C211.825 24.4736 208.401 23.2204 203.998 23.2204H189.428V61.8174H196.932ZM165.53 46.221C164.118 46.221 163.085 46.001 162.431 45.6177C161.835 45.2397 161.507 44.4214 161.507 43.2226C161.507 41.9693 161.995 41.0941 163.03 40.6591C163.681 40.3846 164.717 40.2241 166.073 40.2241H174.985V46.221H165.53ZM168.082 29.1596C170.747 29.1596 172.542 29.5403 173.52 30.3042C174.496 31.068 174.985 32.4844 174.985 34.499H164.985C161.344 34.499 158.627 35.0453 156.833 36.1354C154.658 37.5 153.517 39.9522 153.517 43.4401C153.517 46.0579 154.333 48.1268 155.908 49.652C157.486 51.1771 159.658 51.941 162.431 51.941H182.709V33.9552C182.709 26.8189 178.791 23.2196 170.909 23.2196H155.417V29.1596H168.082ZM141.903 45.7845C138.096 45.7845 135.491 44.9118 134.024 43.1666C133.043 41.9677 132.555 40.1137 132.555 37.6616C132.555 34.2281 133.479 31.9391 135.274 30.7402C136.524 29.9219 138.752 29.4869 141.903 29.4869H149.841V23.2206H139.674C133.75 23.2206 129.567 24.9089 127.119 28.2337C125.435 30.5745 124.565 33.7413 124.565 37.7186C124.565 42.1334 125.869 45.6187 128.423 48.1278C130.979 50.6887 134.726 51.942 139.674 51.942H149.841V45.7845H141.903ZM102.401 46.221C100.988 46.221 99.9552 46.001 99.3044 45.6177C98.7079 45.2397 98.3825 44.4214 98.3825 43.2226C98.3825 41.9693 98.8654 41.0941 99.901 40.6591C100.554 40.3846 101.587 40.2241 102.946 40.2241H111.863V46.221H102.401ZM104.957 29.1596C107.62 29.1596 109.415 29.5403 110.391 30.3042C111.37 31.068 111.863 32.4844 111.863 34.499H101.858C98.2172 34.499 95.5005 35.0453 93.7083 36.1354C91.5287 37.5 90.3898 39.9522 90.3898 43.4401C90.3898 46.0579 91.2033 48.1268 92.7812 49.652C94.3591 51.1771 96.5335 51.941 99.3044 51.941H119.582V33.9552C119.582 26.8189 115.664 23.2196 107.785 23.2196H92.2957V29.1596H104.957ZM66.7132 51.942V29.5957H72.8C74.977 29.5957 76.3896 29.922 76.9887 30.6315C77.4768 31.2322 77.748 32.5968 77.748 34.7201V51.942H85.4127V33.7413C85.4127 29.922 84.4881 27.1979 82.5875 25.6184C80.6868 24.0363 77.6421 23.2207 73.4017 23.2207H59.2138V51.942H66.7132Z" fill="#004466"/>
</svg>